<svg xmlns="http://www.w3.org/2000/svg" width="21" height="16">
                    <path d="M 20.11 5.397 L 15.753 5.397 L 13.309 0.344 C 13.174 0.063 12.811 -0.066 12.499 0.057 C 12.188 0.18 12.046 0.507 12.182 0.789 L 14.411 5.397 L 6.589 5.397 L 8.818 0.789 C 8.954 0.507 8.812 0.18 8.501 0.057 C 8.189 -0.066 7.826 0.063 7.691 0.344 L 5.247 5.397 L 0.89 5.397 C 0.32 5.397 -0.103 5.863 0.022 6.353 L 2.316 15.377 C 2.407 15.735 2.768 15.99 3.184 15.99 L 17.816 15.99 C 18.232 15.99 18.593 15.735 18.684 15.377 L 20.978 6.353 C 21.103 5.863 20.68 5.397 20.11 5.397 Z M 5.362 7.101 C 5.28 7.101 5.197 7.086 5.117 7.054 C 4.805 6.931 4.663 6.604 4.799 6.323 L 5.261 5.367 L 6.604 5.367 L 5.927 6.767 C 5.826 6.976 5.6 7.101 5.362 7.101 Z M 7.424 13.027 C 7.424 13.333 7.148 13.582 6.809 13.582 C 6.469 13.582 6.193 13.333 6.193 13.027 L 6.193 8.953 C 6.193 8.646 6.469 8.397 6.809 8.397 C 7.148 8.397 7.424 8.646 7.424 8.953 Z M 11.115 13.027 C 11.115 13.333 10.84 13.582 10.5 13.582 C 10.16 13.582 9.885 13.333 9.885 13.027 L 9.885 8.953 C 9.885 8.646 10.16 8.397 10.5 8.397 C 10.84 8.397 11.115 8.646 11.115 8.953 Z M 14.807 13.027 C 14.807 13.333 14.531 13.582 14.191 13.582 C 13.852 13.582 13.576 13.333 13.576 13.027 L 13.576 8.953 C 13.576 8.646 13.852 8.397 14.191 8.397 C 14.531 8.397 14.807 8.646 14.807 8.953 Z M 15.883 7.054 C 15.803 7.086 15.72 7.101 15.638 7.101 C 15.4 7.101 15.174 6.976 15.073 6.767 L 14.396 5.367 L 15.739 5.367 L 16.201 6.323 C 16.337 6.604 16.195 6.931 15.883 7.054 Z" fill="hsl(0, 0%, 100%)"></path>
</svg>