<svg xmlns="http://www.w3.org/2000/svg" width="159" height="46">
    <g transform="translate(0 0)">
        <g>
            <g>
                <g transform="translate(0 -0)"></g>
                <path d="M 129.274 0.884 C 129.274 1.2 128.307 1.206 128.307 1.764 L 129.217 1.764 C 129.217 1.493 130.218 1.508 130.218 0.871 C 130.218 -0.28 127.537 -0.355 127.537 1.037 L 128.367 1.037 C 128.367 0.544 129.274 0.486 129.274 0.884 Z M 103.136 10.511 L 104.466 10.511 L 104.466 9.183 L 103.136 9.183 Z M 77.987 10.511 L 79.317 10.511 L 79.317 9.183 L 77.987 9.183 Z M 135.314 4.753 L 135.323 4.753 L 138.411 8.504 L 139.564 8.504 L 139.564 2.442 L 138.225 2.442 L 138.225 6.202 L 138.215 6.202 L 135.118 2.442 L 133.974 2.442 L 133.974 8.504 L 135.314 8.504 Z M 127.791 6.174 L 128.711 4.029 L 128.767 4.029 L 129.688 6.174 Z M 128.2 2.442 L 125.382 8.504 L 126.786 8.504 L 127.335 7.223 L 130.144 7.223 L 130.702 8.504 L 132.162 8.504 L 129.344 2.442 Z M 119.329 7.409 L 119.329 5.877 L 121.691 5.877 C 121.979 5.877 122.193 5.97 122.36 6.137 C 122.491 6.276 122.574 6.453 122.574 6.647 C 122.574 6.842 122.491 7.037 122.36 7.177 C 122.202 7.325 121.97 7.409 121.691 7.409 Z M 119.329 3.547 L 121.468 3.547 C 121.765 3.547 121.942 3.612 122.072 3.751 C 122.184 3.862 122.258 4.011 122.258 4.187 C 122.258 4.373 122.184 4.549 122.053 4.679 C 121.914 4.819 121.719 4.874 121.468 4.874 L 119.329 4.874 Z M 123.393 7.956 C 123.774 7.585 123.96 7.139 123.96 6.657 C 123.96 5.951 123.579 5.394 122.872 5.153 C 123.318 4.92 123.635 4.456 123.635 3.937 C 123.635 3.593 123.495 3.277 123.253 3.027 C 122.919 2.674 122.379 2.442 121.626 2.442 L 117.989 2.442 L 117.989 8.504 L 121.737 8.504 C 122.565 8.504 123.021 8.309 123.393 7.956 Z M 109.893 8.504 L 111.222 8.504 L 111.222 3.593 L 113.417 3.593 L 113.417 2.442 L 107.688 2.442 L 107.688 3.593 L 109.893 3.593 Z M 103.802 1.077 L 104.415 1.764 L 105.392 1.764 L 104.415 0.474 L 103.188 0.474 L 102.202 1.764 L 103.178 1.764 Z M 102.825 6.174 L 103.746 4.029 L 103.802 4.029 L 104.722 6.174 Z M 103.234 2.442 L 100.416 8.504 L 101.821 8.504 L 102.369 7.223 L 105.178 7.223 L 105.736 8.504 L 107.196 8.504 L 104.378 2.442 Z M 94.4 5.812 L 97.265 5.812 L 97.265 8.504 L 98.604 8.504 L 98.604 2.442 L 97.265 2.442 L 97.265 4.688 L 94.4 4.688 L 94.4 2.442 L 93.061 2.442 L 93.061 8.504 L 94.4 8.504 Z M 86.152 4.753 L 86.161 4.753 L 89.249 8.504 L 90.402 8.504 L 90.402 2.442 L 89.063 2.442 L 89.063 6.202 L 89.053 6.202 L 85.957 2.442 L 84.813 2.442 L 84.813 8.504 L 86.152 8.504 Z M 77.987 8.504 L 79.317 8.504 L 79.317 2.442 L 77.987 2.442 Z M 71.125 5.812 L 73.989 5.812 L 73.989 8.504 L 75.328 8.504 L 75.328 2.442 L 73.989 2.442 L 73.989 4.688 L 71.125 4.688 L 71.125 2.442 L 69.786 2.442 L 69.786 8.504 L 71.125 8.504 Z M 64.318 8.504 L 65.648 8.504 L 65.648 3.593 L 67.843 3.593 L 67.843 2.442 L 62.114 2.442 L 62.114 3.593 L 64.318 3.593 Z M 54.923 8.69 C 56.532 8.69 57.704 7.836 57.704 6.322 L 57.704 2.442 L 56.365 2.442 L 56.365 6.322 C 56.365 7.121 55.751 7.548 54.923 7.548 C 54.142 7.548 53.5 7.121 53.5 6.322 L 53.5 2.442 L 52.161 2.442 L 52.161 6.322 C 52.161 7.836 53.361 8.69 54.923 8.69 Z M 47.447 1.077 L 48.061 1.764 L 49.037 1.764 L 48.061 0.474 L 46.833 0.474 L 45.847 1.764 L 46.824 1.764 Z M 50.191 7.362 L 46.247 7.362 L 46.247 5.914 L 49.085 5.914 L 49.085 4.772 L 46.247 4.772 L 46.247 3.593 L 49.977 3.593 L 49.977 2.442 L 44.917 2.442 L 44.917 8.504 L 50.191 8.504 Z M 40.928 8.504 L 42.258 8.504 L 42.258 2.442 L 40.928 2.442 Z M 36.13 7.604 C 34.902 7.604 34.037 6.991 33.526 6.583 L 32.773 7.492 C 33.479 8.068 34.54 8.69 36.111 8.69 C 37.599 8.69 38.846 8.105 38.846 6.61 C 38.846 4.939 37.116 4.809 36.009 4.735 C 35.218 4.67 34.419 4.633 34.419 4.094 C 34.419 3.574 34.958 3.351 35.563 3.351 C 36.567 3.351 37.33 3.732 37.692 4.002 L 38.455 3.073 C 37.934 2.72 36.865 2.256 35.6 2.256 C 34.456 2.256 33.089 2.711 33.089 4.178 C 33.089 5.719 34.651 5.868 35.981 5.951 C 36.893 6.025 37.516 6.155 37.516 6.74 C 37.516 7.307 36.902 7.604 36.13 7.604 Z M 46.262 31.01 C 46.259 31.012 46.259 31.015 46.257 31.018 C 46.143 31.213 46.016 31.406 45.881 31.594 C 45.373 32.291 44.769 32.875 44.098 33.332 C 44.09 33.34 44.082 33.346 44.073 33.351 C 43.069 34.04 41.921 34.462 40.737 34.6 C 40.734 34.6 40.72 34.602 40.72 34.602 L 40.817 33.073 L 40.817 33.07 L 39.387 33.635 L 39.633 33.538 L 39.387 33.635 L 39.387 33.635 L 39.387 33.63 C 39.216 32.792 39.191 31.924 39.318 31.07 C 38.46 31.558 37.483 31.798 36.379 31.798 C 34.74 31.798 33.349 31.222 32.201 30.067 C 31.088 28.924 30.531 27.533 30.531 25.899 C 30.531 24.194 31.066 22.769 32.143 21.626 C 32.852 20.865 33.683 20.35 34.638 20.08 C 35.167 19.929 35.733 19.854 36.338 19.854 C 37.505 19.854 38.537 20.116 39.429 20.645 C 39.73 20.598 40.036 20.576 40.339 20.576 C 41.303 20.576 42.23 20.794 43.069 21.196 L 43.069 21.193 C 43.047 20.967 43.036 20.739 43.036 20.507 C 43.036 19.637 43.185 18.799 43.464 18.025 C 43.869 16.879 44.551 15.862 45.426 15.058 C 45.429 15.055 45.44 15.044 45.44 15.044 L 46.262 16.339 L 47.087 15.047 L 47.09 15.049 C 47.979 15.862 48.666 16.89 49.074 18.052 C 49.121 18.19 49.165 18.328 49.204 18.466 L 49.276 18.466 L 49.276 14.096 L 42.249 14.096 L 42.249 16.592 L 42.166 16.592 C 41.504 15.49 40.513 14.653 39.189 14.074 C 39.031 14.005 38.874 13.942 38.714 13.881 C 37.66 13.49 36.525 13.292 35.303 13.292 C 31.845 13.292 28.994 14.523 26.744 16.983 C 24.583 19.364 23.502 22.306 23.502 25.816 C 23.502 29.379 24.561 32.343 26.684 34.71 C 28.889 37.142 31.762 38.36 35.303 38.36 C 36.721 38.36 38.024 38.107 39.211 37.597 C 40.588 37.005 41.573 36.145 42.166 35.018 L 42.249 35.018 L 42.249 37.556 L 49.276 37.556 L 49.276 33.787 C 47.976 33.219 46.924 32.227 46.262 31.01 Z M 48.668 26.981 L 47.717 26.612 C 47.917 26.329 48.037 25.985 48.042 25.612 L 49.029 25.872 C 51.098 26.418 53.207 25.576 54.366 23.923 L 52.71 23.496 L 53.798 22.18 C 51.887 21.522 49.686 22.079 48.333 23.734 L 47.687 24.524 C 47.474 24.24 47.179 24.022 46.836 23.906 L 47.388 23.049 C 48.547 21.253 48.397 18.991 47.18 17.38 L 46.262 18.82 L 45.344 17.38 C 44.128 18.991 43.977 21.253 45.136 23.049 L 45.689 23.906 C 45.346 24.022 45.051 24.24 44.838 24.524 L 44.191 23.734 C 42.839 22.079 40.637 21.522 38.727 22.18 L 39.814 23.496 L 38.159 23.923 C 39.318 25.576 41.427 26.418 43.496 25.872 L 44.483 25.612 C 44.488 25.985 44.608 26.329 44.808 26.612 L 43.857 26.981 C 41.862 27.753 40.651 29.672 40.687 31.689 L 42.277 31.063 L 42.172 32.766 C 44.105 32.177 45.559 30.435 45.678 28.302 L 45.736 27.286 C 45.902 27.338 46.079 27.365 46.262 27.365 C 46.446 27.365 46.622 27.338 46.789 27.286 L 46.846 28.302 C 46.966 30.435 48.419 32.177 50.352 32.766 L 50.247 31.063 L 51.838 31.689 C 51.874 29.672 50.663 27.753 48.668 26.981 Z M 13.332 27.156 C 13.332 28.353 13.214 29.233 12.98 29.797 C 12.622 30.692 11.933 31.138 10.913 31.138 C 10.017 31.138 9.377 30.726 8.991 29.9 C 8.729 29.351 8.571 28.553 8.516 27.507 L 8.516 26.257 L 0 26.257 L 0 27.507 C 0 29.887 0.496 31.902 1.488 33.552 C 2.563 35.341 4.168 36.62 6.304 37.39 C 7.613 37.899 9.025 38.154 10.541 38.154 C 14.234 38.154 17.183 36.785 19.388 34.048 C 20.242 32.961 20.807 31.551 21.083 29.818 C 21.193 29.13 21.269 28.353 21.31 27.486 C 21.323 26.964 21.331 26.194 21.331 25.175 L 21.331 6.275 L 13.332 6.275 Z M 150.319 30.086 C 149.203 31.228 147.797 31.799 146.103 31.799 C 144.462 31.799 143.071 31.221 141.927 30.066 C 140.811 28.924 140.253 27.535 140.253 25.898 C 140.253 24.192 140.791 22.768 141.865 21.627 C 142.967 20.444 144.366 19.852 146.061 19.852 C 147.77 19.852 149.182 20.416 150.298 21.544 C 151.414 22.672 151.972 24.096 151.972 25.815 C 151.972 27.521 151.421 28.944 150.319 30.086 Z M 151.972 14.095 L 151.972 16.592 L 151.89 16.592 C 151.228 15.492 150.236 14.652 148.914 14.075 C 147.728 13.552 146.433 13.291 145.028 13.291 C 141.569 13.291 138.717 14.522 136.471 16.984 C 134.307 19.364 133.226 22.307 133.226 25.815 C 133.226 29.378 134.287 32.342 136.409 34.708 C 138.613 37.143 141.486 38.36 145.028 38.36 C 146.447 38.36 147.749 38.105 148.934 37.597 C 150.312 37.005 151.297 36.146 151.89 35.018 L 151.972 35.018 L 151.972 37.555 L 159 37.555 L 159 14.095 Z M 128.348 15.333 C 126.722 13.971 124.717 13.291 122.334 13.291 C 119.426 13.291 117.297 14.391 115.947 16.592 L 115.843 16.592 L 115.843 14.095 L 109.291 14.095 L 109.291 37.555 L 116.319 37.555 L 116.319 24.804 C 116.319 23.236 116.58 22.067 117.104 21.296 C 117.738 20.361 118.82 19.893 120.349 19.893 C 121.796 19.893 122.802 20.375 123.367 21.338 C 123.808 22.08 124.028 23.215 124.028 24.742 L 124.028 37.555 L 131.056 37.555 L 131.056 22.885 C 131.056 21.276 130.883 19.907 130.539 18.779 C 130.098 17.335 129.368 16.186 128.348 15.333 Z M 96.961 30.086 C 95.845 31.228 94.44 31.799 92.745 31.799 C 91.105 31.799 89.713 31.221 88.57 30.066 C 87.453 28.924 86.895 27.535 86.895 25.898 C 86.895 24.192 87.433 22.768 88.508 21.627 C 89.61 20.444 91.008 19.852 92.703 19.852 C 94.412 19.852 95.824 20.416 96.94 21.544 C 98.057 22.672 98.615 24.096 98.615 25.815 C 98.615 27.521 98.063 28.944 96.961 30.086 Z M 98.615 16.592 L 98.532 16.592 C 97.87 15.492 96.879 14.652 95.556 14.075 C 94.37 13.552 93.075 13.291 91.67 13.291 C 88.211 13.291 85.359 14.522 83.113 16.984 C 80.949 19.364 79.868 22.307 79.868 25.815 C 79.868 29.378 80.929 32.342 83.051 34.708 C 85.255 37.143 88.128 38.36 91.67 38.36 C 93.089 38.36 94.391 38.105 95.576 37.597 C 96.954 37.005 97.939 36.146 98.532 35.018 L 98.615 35.018 L 98.615 37.555 L 105.642 37.555 L 105.642 14.095 L 98.615 14.095 Z M 69.729 30.067 C 68.598 31.221 67.201 31.797 65.531 31.797 C 63.881 31.797 62.482 31.221 61.336 30.067 C 60.221 28.91 59.664 27.507 59.664 25.857 C 59.664 24.165 60.221 22.747 61.336 21.606 C 62.451 20.435 63.851 19.854 65.531 19.854 C 67.215 19.854 68.62 20.435 69.749 21.606 C 70.866 22.747 71.424 24.165 71.424 25.857 C 71.424 27.507 70.858 28.91 69.729 30.067 Z M 66.98 13.291 C 63.892 13.291 61.455 14.418 59.664 16.674 L 59.518 16.674 L 59.518 14.096 L 52.924 14.096 L 52.924 20.609 C 54.028 20.683 55.091 21.008 56.035 21.537 L 56.038 21.54 L 56.043 21.543 C 56.049 21.543 56.051 21.545 56.051 21.545 L 55.074 22.727 L 55.458 22.827 L 56.559 23.113 L 56.562 23.113 L 56.548 23.132 C 56.051 24.215 55.292 25.174 54.324 25.918 C 54.318 25.92 54.315 25.926 54.31 25.929 C 53.888 26.276 53.421 26.571 52.924 26.797 L 52.924 45.374 L 59.954 45.374 L 59.954 35.453 C 61.745 37.39 64.102 38.36 67.022 38.36 C 70.356 38.36 73.118 37.128 75.31 34.668 C 77.404 32.301 78.45 29.433 78.45 26.064 C 78.45 22.501 77.454 19.523 75.456 17.129 C 73.32 14.57 70.494 13.291 66.98 13.291 Z" fill="rgb(255,255,255)"></path>
            </g>
        </g>
    </g>
</svg>